<?xml version="1.0" standalone="no"?>
<svg xmlns="http://www.w3.org/2000/svg" width="24" height="24"><rect width="24" height="24" opacity="0"></rect><g mask="url(#hms_mask_0)"><path d="M7.73 3.02Q6.6 3.02 5.68 3.66Q4.75 4.3 4.32 5.33L6.05 5.33Q6.34 4.97 6.76 4.76Q7.18 4.56 7.66 4.54L7.73 4.54L18.55 4.54Q19.46 4.54 20.11 5.18Q20.76 5.83 20.76 6.74L20.76 14.26Q20.76 14.71 20.58 15.13Q20.4 15.55 20.06 15.86L20.06 17.64Q21.05 17.21 21.66 16.28Q22.27 15.36 22.27 14.26L22.27 6.74Q22.27 5.74 21.77 4.88Q21.26 4.03 20.41 3.53Q19.56 3.02 18.55 3.02L7.73 3.02ZM16.01 21Q16.75 21 17.38 20.63Q18 20.26 18.37 19.62Q18.74 18.98 18.74 18.24L18.74 9.38Q18.74 8.64 18.37 8Q18 7.37 17.38 7Q16.75 6.62 16.01 6.62L3.98 6.62Q3.24 6.62 2.6 7Q1.97 7.37 1.6 8Q1.22 8.64 1.22 9.38L1.22 18.24Q1.22 18.98 1.6 19.62Q1.97 20.26 2.6 20.63Q3.24 21 3.98 21L16.01 21ZM16.01 8.14Q16.51 8.14 16.88 8.5Q17.26 8.86 17.26 9.38L17.26 18.24Q17.26 18.77 16.88 19.13Q16.51 19.49 16.01 19.49L3.98 19.49Q3.46 19.49 3.1 19.13Q2.74 18.77 2.74 18.24L2.74 9.38Q2.74 8.86 3.1 8.5Q3.46 8.14 3.98 8.14L16.01 8.14Z" fill="currentColor"></path></g><defs><mask id="hms_mask_0"><rect width="24" height="24" fill="#ffffff"></rect><g><path d="M18.26 11.76Q16.82 11.76 15.6 12.47Q14.38 13.18 13.67 14.4Q12.96 15.62 12.96 17.06Q12.96 18.5 13.67 19.73Q14.38 20.95 15.6 21.66Q16.82 22.37 18.26 22.37Q19.7 22.37 20.93 21.66Q22.15 20.95 22.86 19.73Q23.57 18.5 23.57 17.06Q23.57 15.62 22.86 14.4Q22.15 13.18 20.93 12.47Q19.7 11.76 18.26 11.76Z" fill="#000000"></path></g></mask></defs><g><path d="M14.26 17.06Q14.26 18.14 14.8 19.07Q15.34 19.99 16.26 20.53Q17.18 21.07 18.26 21.07Q19.34 21.07 20.27 20.53Q21.19 19.99 21.73 19.07Q22.27 18.14 22.27 17.06Q22.27 15.98 21.73 15.06Q21.19 14.14 20.27 13.6Q19.34 13.06 18.26 13.06Q17.18 13.06 16.26 13.6Q15.34 14.14 14.8 15.06Q14.26 15.98 14.26 17.06ZM16.03 17.47Q15.91 17.33 15.9 17.15Q15.89 16.97 16.03 16.82Q16.15 16.7 16.34 16.7Q16.54 16.7 16.66 16.82L17.78 17.95L17.78 15.17Q17.78 14.98 17.92 14.84Q18.05 14.71 18.24 14.71Q18.43 14.71 18.55 14.84Q18.67 14.98 18.67 15.17L18.67 17.95L19.82 16.82Q19.97 16.68 20.16 16.68Q20.35 16.68 20.45 16.82Q20.59 16.94 20.59 17.14Q20.59 17.33 20.45 17.45L18.7 19.22Q18.53 19.39 18.25 19.39Q17.98 19.39 17.78 19.22L16.03 17.47Z" fill="currentColor"></path></g></svg>