<svg t="1728615086377" class="icon" viewBox="0 0 1024 1024" version="1.1" xmlns="http://www.w3.org/2000/svg" p-id="23387" width="200" height="200"><path d="M907.776 586.24c-11.264-3.072-18.432-14.336-15.872-25.6 50.688-231.936-90.624-465.92-323.072-527.872C329.728-30.72 82.944 110.592 17.92 348.672v1.024c-39.424 147.456-12.8 302.08 74.752 430.08C153.6 868.864 241.664 936.96 343.04 974.336c283.648 103.424 589.312-51.712 679.424-328.192 4.608-14.336-3.584-29.696-18.432-33.792l-96.256-26.112z m-471.552 224.768c-87.04-23.04-159.744-78.848-204.8-156.672C186.368 576.512 174.592 486.4 197.632 399.36c38.4-141.824 185.344-226.304 328.192-187.904 135.168 36.352 218.624 169.984 194.56 304.64-2.048 12.8 5.12 25.088 17.92 28.16l90.624 24.064c11.776 3.072 17.92 15.36 14.336 26.624-57.344 166.4-234.496 262.144-407.04 216.064z" p-id="23388" fill="currentColor"></path></svg>