<?xml version="1.0" standalone="no"?>
<svg xmlns="http://www.w3.org/2000/svg" width="24" height="24"><rect width="24" height="24" opacity="0"></rect><g><path d="M3.5 2.76Q2.88 2.76 2.44 3.19Q1.99 3.62 1.99 4.25Q1.99 4.87 2.44 5.32Q2.88 5.76 3.5 5.76Q4.13 5.76 4.56 5.32Q4.99 4.87 4.99 4.25Q4.99 3.62 4.56 3.19Q4.13 2.76 3.5 2.76ZM3.5 10.51Q2.88 10.51 2.44 10.94Q1.99 11.38 1.99 12Q1.99 12.62 2.44 13.07Q2.88 13.51 3.5 13.51Q4.13 13.51 4.56 13.07Q4.99 12.62 4.99 12Q4.99 11.38 4.56 10.94Q4.13 10.51 3.5 10.51ZM3.5 18.24Q2.88 18.24 2.44 18.68Q1.99 19.13 1.99 19.75Q1.99 20.38 2.44 20.81Q2.88 21.24 3.5 21.24Q4.13 21.24 4.56 20.8Q4.99 20.35 4.99 19.75Q4.99 19.13 4.56 18.68Q4.13 18.24 3.5 18.24Z" fill="rgba(0,0,0,0.9019607843137255)"></path><path d="M21.24 4.99Q21.55 4.99 21.78 4.78Q22.01 4.56 22.01 4.25Q22.01 3.94 21.78 3.72Q21.55 3.5 21.24 3.5L7.73 3.5Q7.42 3.5 7.2 3.72Q6.98 3.94 6.98 4.25Q6.98 4.56 7.2 4.78Q7.42 4.99 7.73 4.99L21.24 4.99ZM21.24 12.74Q21.55 12.74 21.78 12.53Q22.01 12.31 22.01 12Q22.01 11.69 21.78 11.47Q21.55 11.26 21.24 11.26L7.73 11.26Q7.42 11.26 7.2 11.47Q6.98 11.69 6.98 12Q6.98 12.31 7.2 12.53Q7.42 12.74 7.73 12.74L21.24 12.74ZM21.24 20.5Q21.55 20.5 21.78 20.28Q22.01 20.06 22.01 19.75Q22.01 19.44 21.78 19.22Q21.55 19.01 21.24 19.01L7.73 19.01Q7.42 19.01 7.2 19.22Q6.98 19.44 6.98 19.75Q6.98 20.06 7.2 20.28Q7.42 20.5 7.73 20.5L21.24 20.5Z" fill="rgba(0,0,0,0.9019607843137255)"></path></g></svg>